<?xml version="1.0" encoding="utf-8"?>
<!-- Generator: Adobe Illustrator 24.1.2, SVG Export Plug-In . SVG Version: 6.00 Build 0)  -->
<svg version="1.1" id="Layer_1" xmlns="http://www.w3.org/2000/svg" xmlns:xlink="http://www.w3.org/1999/xlink" x="0px" y="0px"
	 viewBox="0 0 740.6 244.9" style="enable-background:new 0 0 740.6 244.9;" xml:space="preserve">
<style type="text/css">
	.st0{fill:#FF0000;}
	.st1{font-family:'Montserrat-BoldItalic';}
	.st2{font-size:20.655px;}
	.st3{letter-spacing:1;}
</style>
<g>
	<path d="M208.4,130.9l19.3,20.6c-11.3,12.3-28.4,20.3-44,20.3c-31.1,0-53.6-22.1-53.6-52.2c-0.1-7.8,1.7-15.5,5-22.5h-12.6v73.8H89
		V97H60.2V68.1H185c7.3,0.1,14.5,1.5,21.3,4.2l9.3,28.7l-7.2,8.5c-6.1-8.2-15.2-13.6-22.9-13.6c-2.2,0-4.4,0.3-6.5,1
		c-8.7,2.8-14.4,11.2-14.4,22.1c0,13.5,8.8,23.4,20.9,23.4C192.7,142.5,201.8,138,208.4,130.9z"/>
	<path class="st0" d="M381.1,68.5l-33.6,102.9h-35.1l-14.3-61.6l-14.7,61.6h-35.1l-24.3-74.6l0,0l0,0l-7-21.7l0,0l-2.1-6.6h36.5
		l15.6,61.3l15.3-61.3h33.2l15.6,61.3l15.3-61.3H381.1z"/>
	<polygon class="st0" points="670.6,133 664.4,150 377.3,150 383,133 	"/>
	<polygon class="st0" points="677.5,111.3 672.1,128.2 384.5,128.2 390.2,111.3 	"/>
	<polygon class="st0" points="684.5,89.6 679.1,106.5 391.8,106.5 397.4,89.6 	"/>
	<polygon class="st0" points="691.5,67.8 686,84.8 399,84.8 404.6,67.8 	"/>
	<polygon class="st0" points="662.9,154.8 656.7,171.8 369.7,171.8 375.3,154.8 	"/>
	<text transform="matrix(1 0 0 1 683.8398 171.5634)" class="st1 st2 st3">TM</text>
</g>
</svg>
