<svg id="Layer_1" data-name="Layer 1" xmlns="http://www.w3.org/2000/svg" viewBox="0 0 658.23 109.22"><defs><style>.cls-1{fill:red;}.cls-2{isolation:isolate;font-size:20.66px;font-family:Montserrat-BoldItalic, Montserrat;font-weight:700;font-style:italic;letter-spacing:0.05em;}</style></defs><path d="M208.38,130.91l19.33,20.65c-11.25,12.25-28.43,20.25-44,20.25-31.05,0-53.56-22.09-53.56-52.25a51.34,51.34,0,0,1,5-22.53H122.6v73.76H89V97H60.17V68.14H185a59.23,59.23,0,0,1,21.29,4.21L215.62,101l-7.24,8.53C202.32,101.34,193.22,96,185.43,96a21,21,0,0,0-6.49,1c-8.65,2.79-14.43,11.22-14.43,22.1,0,13.5,8.8,23.37,20.92,23.37C192.7,142.46,201.78,138,208.38,130.91Z" transform="translate(-60.17 -67.84)"/><path class="cls-1" d="M381.06,68.45,347.43,171.39h-35.1l-14.25-61.6-14.7,61.6h-35.1L223.93,96.8h0l-7-21.72h0l-2.13-6.63h36.45l15.58,61.33,15.31-61.33h33.22l15.58,61.33,15.3-61.33Z" transform="translate(-60.17 -67.84)"/><polygon class="cls-1" points="610.4 65.17 604.21 82.12 317.17 82.12 322.8 65.17 610.4 65.17"/><polygon class="cls-1" points="617.37 43.44 611.93 60.4 324.38 60.4 330.01 43.44 617.37 43.44"/><polygon class="cls-1" points="624.32 21.72 618.89 38.68 331.59 38.68 337.22 21.72 624.32 21.72"/><polygon class="cls-1" points="631.29 0 625.86 16.96 338.8 16.96 344.43 0 631.29 0"/><polygon class="cls-1" points="602.74 86.97 596.54 103.92 309.5 103.92 315.13 86.97 602.74 86.97"/><text class="cls-2" transform="translate(623.67 103.72)">TM</text></svg>