<svg id="Layer_1" data-name="Layer 1" xmlns="http://www.w3.org/2000/svg" viewBox="0 0 487.58 80.9"><defs><style>.cls-1{fill:red;}.cls-2{font-size:15.3px;font-family:Montserrat-BoldItalic, Montserrat;font-weight:700;font-style:italic;letter-spacing:0.05em;}</style></defs><path d="M826,546.27l14.32,15.29c-8.34,9.08-21.06,15-32.6,15-23,0-39.67-16.36-39.67-38.7a38.11,38.11,0,0,1,3.71-16.69h-9.3v54.64H737.58V521.14H716.21V499.77h92.5a43.8,43.8,0,0,1,15.77,3.12l6.88,21.24L826,530.45c-4.49-6.09-11.23-10.05-17-10.05a15.73,15.73,0,0,0-4.81.74c-6.41,2.07-10.69,8.31-10.69,16.37,0,10,6.52,17.31,15.5,17.31C814.38,554.82,821.11,551.51,826,546.27Z" transform="translate(-716.21 -499.55)"/><path class="cls-1" d="M953.91,500,929,576.25h-26l-10.56-45.63-10.89,45.63h-26L837.52,521v0h0l-5.2-16.09,0,0L830.74,500h27l11.54,45.43L880.62,500h24.61l11.54,45.43L928.1,500Z" transform="translate(-716.21 -499.55)"/><polygon class="cls-1" points="452.15 48.27 447.56 60.83 234.94 60.83 239.11 48.27 452.15 48.27"/><polygon class="cls-1" points="457.31 32.18 453.28 44.74 240.28 44.74 244.45 32.18 457.31 32.18"/><polygon class="cls-1" points="462.46 16.09 458.44 28.65 245.62 28.65 249.79 16.09 462.46 16.09"/><polygon class="cls-1" points="467.62 0 463.6 12.56 250.96 12.56 255.13 0 467.62 0"/><polygon class="cls-1" points="446.47 64.42 441.88 76.98 229.26 76.98 233.43 64.42 446.47 64.42"/><text class="cls-2" transform="translate(461.98 76.83)">TM</text></svg>
